<?xml version="1.0" encoding="UTF-8" standalone="no"?>
<svg
   width="292"
   height="292"
   viewBox="0 0 292 292"
   fill="none"
   version="1.1"
   id="svg46"
   sodipodi:docname="logo.svg"
   inkscape:version="1.2.2 (b0a8486541, 2022-12-01)"
   xmlns:inkscape="http://www.inkscape.org/namespaces/inkscape"
   xmlns:sodipodi="http://sodipodi.sourceforge.net/DTD/sodipodi-0.dtd"
   xmlns="http://www.w3.org/2000/svg"
   xmlns:svg="http://www.w3.org/2000/svg">
  <defs
     id="defs50" />
  <sodipodi:namedview
     id="namedview48"
     pagecolor="#ffffff"
     bordercolor="#000000"
     borderopacity="0.25"
     inkscape:showpageshadow="2"
     inkscape:pageopacity="0.0"
     inkscape:pagecheckerboard="0"
     inkscape:deskcolor="#d1d1d1"
     showgrid="false"
     showguides="true"
     inkscape:zoom="2.17"
     inkscape:cx="150"
     inkscape:cy="141.93548"
     inkscape:window-width="1920"
     inkscape:window-height="1008"
     inkscape:window-x="0"
     inkscape:window-y="0"
     inkscape:window-maximized="1"
     inkscape:current-layer="svg46" />
  <path
     fill-rule="evenodd"
     clip-rule="evenodd"
     d="m 146.00002,5.2241938 c 3.38217,0 6.72984,0.1248237 10.05625,0.3598634 C 95.739912,10.300796 48.26046,60.795931 48.26046,122.39108 c 0,64.71574 52.39671,117.17485 117.02213,117.17485 64.63208,0 117.02879,-52.45911 117.02879,-117.17485 0,-4.82032 -0.29745,-9.57158 -0.86447,-14.24715 3.3543,12.04812 5.15228,24.73897 5.15228,37.85209 0,77.75183 -62.95093,140.77979 -140.59918,140.77979 C 68.35175,286.77581 5.4008109,223.74785 5.4008109,145.99602 5.4008109,68.250823 68.35175,5.2241938 146.00002,5.2241938 Z"
     fill="#6d071a"
     id="path2"
     style="fill:#8f1f30;fill-opacity:1;stroke-width:1.32791" />
  <path
     fill-rule="evenodd"
     clip-rule="evenodd"
     d="m 222.37147,62.925899 v 66.645191 l -18.78329,-12.13179 -35.51498,22.04863 -5.9756,3.71417 -3.4924,2.17246 V 43.186505 l -40.36318,25.009872 v 43.965813 l -9.468,-6.41116 V 62.925899 L 168.0732,26.173313 Z M 46.942502,128.83809 v 93.12638 l 7.206571,7.4695 v -96.5856 l 30.714576,-19.03294 v 137.68044 l 48.524531,14.33082 V 128.83809 L 92.070225,100.8683 Z m 111.662698,136.9886 7.20656,-0.87111 V 155.35381 l 30.71458,-19.03294 v 120.12678 c 0.6135,-1.35446 32.60951,-23.55315 48.53116,-34.48318 v -70.62892 l -41.31794,-27.96846 -45.13436,27.96846 z"
     fill="#6d071a"
     id="path44"
     style="fill:#8f1f30;fill-opacity:1;stroke-width:1.32791" />
</svg>
