<?xml version="1.0" encoding="UTF-8" standalone="no"?>
<svg
   width="292"
   height="292"
   viewBox="0 0 292 292"
   fill="none"
   version="1.1"
   id="svg46"
   sodipodi:docname="logo.svg"
   inkscape:version="1.2.2 (b0a8486541, 2022-12-01)"
   xmlns:inkscape="http://www.inkscape.org/namespaces/inkscape"
   xmlns:sodipodi="http://sodipodi.sourceforge.net/DTD/sodipodi-0.dtd"
   xmlns="http://www.w3.org/2000/svg"
   xmlns:svg="http://www.w3.org/2000/svg">
  <defs
     id="defs50" />
  <sodipodi:namedview
     id="namedview48"
     pagecolor="#ffffff"
     bordercolor="#000000"
     borderopacity="0.25"
     inkscape:showpageshadow="2"
     inkscape:pageopacity="0.0"
     inkscape:pagecheckerboard="0"
     inkscape:deskcolor="#d1d1d1"
     showgrid="false"
     showguides="true"
     inkscape:zoom="2.17"
     inkscape:cx="130.18433"
     inkscape:cy="147.46544"
     inkscape:window-width="1920"
     inkscape:window-height="1008"
     inkscape:window-x="0"
     inkscape:window-y="0"
     inkscape:window-maximized="1"
     inkscape:current-layer="svg46" />
  <path
     fill-rule="evenodd"
     clip-rule="evenodd"
     d="m 146,39.987 c 2.547,0 5.068,0.094 7.573,0.271 -45.422,3.552 -81.177,41.578 -81.177,87.963 0,48.735 39.458,88.24 88.125,88.24 48.672,0 88.13,-39.505 88.13,-88.24 0,-3.63 -0.224,-7.208 -0.651,-10.729 2.526,9.073 3.88,18.63 3.88,28.505 0,58.552 -47.406,106.016 -105.88,106.016 C 87.526,252.013 40.12,204.549 40.12,145.997 40.12,87.45 87.526,39.987 146,39.987 Z"
     fill="#6d071a"
     id="path2"
     style="fill:#8f1f30;fill-opacity:1" />
  <path
     fill-rule="evenodd"
     clip-rule="evenodd"
     d="m 203.5125,83.44 v 50.188 l -14.145,-9.136 -26.745,16.604 -4.5,2.797 -2.63,1.636 V 68.575 l -30.396,18.834 v 33.109 l -7.13,-4.828 V 83.44 l 44.656,-27.677 z m -132.109,49.636 v 70.13 l 5.427,5.625 v -72.735 l 23.13,-14.333 v 103.682 l 36.542,10.792 V 133.076 l -31.115,-21.063 z m 84.089,103.161 5.427,-0.656 v -82.537 l 23.13,-14.333 v 90.463 c 0.462,-1.02 24.557,-17.737 36.547,-25.968 v -53.188 l -31.115,-21.062 -33.989,21.062 z"
     fill="#6d071a"
     id="path44"
     style="fill:#8f1f30;fill-opacity:1" />
  <circle
     style="fill:none;fill-opacity:1;stroke:#8f1f30;stroke-width:3.91392;stroke-dasharray:none;stroke-opacity:1"
     id="path569"
     cx="-25.997423"
     cy="204.83197"
     r="135.46017"
     transform="matrix(-0.79051168,0.61244697,0.61244697,0.79051168,0,0)" />
  <g
     aria-label="LUNA"
     id="text11243"
     style="font-weight:bold;font-size:20px;-inkscape-font-specification:'sans-serif, Bold';fill:#8f1f30;stroke-width:4"
     transform="translate(-1.979725,23.52143)">
    <path
       d="m 121.98512,12.633186 -2.15001,-14.1172182 2.98557,-0.4546948 1.77362,11.6457161 5.73388,-0.8732549 0.3764,2.4715018 z"
       id="path11377" />
    <path
       d="m 144.30217,5.3647221 q 0.0812,1.4777693 -0.51191,2.7121839 -0.57427,1.213347 -1.85387,1.984739 -1.26072,0.750324 -3.2577,0.860091 -2.83572,0.15587 -4.39252,-1.2007314 -1.5579,-1.3765714 -1.68853,-3.7529842 l -0.50493,-9.1861333 3.01545,-0.165749 0.47969,8.7268266 q 0.0966,1.7573473 0.85502,2.4367457 0.75843,0.6793985 2.17629,0.6014635 1.47777,-0.081228 2.09397,-0.8962757 0.63616,-0.8161453 0.54506,-2.4736433 l -0.47859,-8.7068567 3.01545,-0.1657491 z"
       id="path11379" />
    <path
       d="m 160.72673,11.156706 -3.83276,-0.235698 -5.54537,-11.16141813 -0.0798,-0.00491 q -0.0227,1.02053197 -0.0454,2.04106393 -0.003,1.0217596 -0.0254,2.0422916 l -0.41247,6.7073286 -2.69491,-0.165725 0.8765,-14.2530744 3.8128,0.2344705 5.53154,11.0603794 0.0599,0.00368 q 0.0414,-0.9993421 0.0616,-1.9799495 0.0202,-0.9806074 0.0405,-1.9612148 l 0.41493,-6.7472539 2.71487,0.1669529 z"
       id="path11381" />
    <path
       d="m 172.91312,13.153798 -0.43846,-3.5283644 -5.12219,-0.8962001 -1.61041,3.1698835 -3.21122,-0.561848 7.43603,-13.256798 3.64463,0.6376808 2.51284,14.9974942 z m -1.16217,-9.6040072 q -0.0399,-0.352147 -0.1079,-0.8919414 -0.068,-0.5397943 -0.13252,-1.0992894 -0.0645,-0.55949505 -0.0941,-0.97074424 -0.16745,0.37677996 -0.44816,0.93677954 -0.25757,0.5437457 -0.50824,1.04809 -0.22753,0.4880905 -0.34424,0.6910108 l -1.57693,3.0945279 3.66433,0.6411278 z"
       id="path11383" />
  </g>
  <g
     aria-label="HANDYMAN  SOLUTIONS"
     id="text11349"
     style="font-weight:bold;font-size:20px;-inkscape-font-specification:'sans-serif, Bold';fill:#8f1f30;stroke-width:4"
     transform="translate(0.34593258,-8.566017)">
    <path
       d="m 47.602335,239.29461 -1.97957,-2.28072 4.652074,-4.0378 -3.710054,-4.27447 -4.652074,4.0378 -1.97957,-2.28073 10.784353,-9.36035 1.97957,2.28073 -4.229158,3.67072 3.710054,4.27447 4.229158,-3.67072 1.97957,2.28072 z"
       id="path11425" />
    <path
       d="m 56.538381,247.81423 1.553239,-3.19828 -3.808523,-3.54051 -3.076648,1.78209 -2.387651,-2.21962 13.454953,-7.07117 2.70991,2.5192 -6.05763,13.94792 z m 4.254074,-8.68852 q 0.158253,-0.31711 0.395118,-0.8069 0.236865,-0.48979 0.487347,-0.99423 0.250483,-0.50443 0.449588,-0.86548 -0.345587,0.22487 -0.88594,0.54176 -0.512088,0.31586 -0.99694,0.60242 -0.456588,0.28553 -0.664971,0.39219 l -3.007531,1.73712 2.724559,2.53282 z"
       id="path11427" />
    <path
       d="m 70.514662,258.70213 -3.0861,-2.28508 1.427945,-12.38101 -0.06429,-0.0476 q -0.574827,0.84355 -1.149654,1.68709 -0.558754,0.85545 -1.133581,1.699 l -3.998888,5.40068 -2.169914,-1.6067 8.497636,-11.47643 3.070027,2.27317 -1.384511,12.28874 0.04822,0.0357 q 0.578999,-0.81557 1.130023,-1.62698 0.551024,-0.8114 1.102049,-1.6228 l 4.022691,-5.43282 2.185987,1.6186 z"
       id="path11429" />
    <path
       d="m 87.454717,260.24245 q -1.80688,3.13681 -4.51033,3.70299 -2.676137,0.55883 -5.88227,-1.28798 l -3.500751,-2.01652 7.12769,-12.37394 3.882021,2.23614 q 1.94101,1.11807 2.962797,2.62987 1.039117,1.52179 1.040332,3.32279 0.02853,1.79365 -1.119489,3.78665 z m -2.760812,-1.49797 q 1.187948,-2.06232 0.835817,-3.5346 -0.342149,-1.48961 -2.057864,-2.4779 l -1.403766,-0.80861 -4.641983,8.05866 1.126479,0.64888 q 3.795368,2.18623 6.141317,-1.88643 z"
       id="path11431" />
    <path
       d="m 93.82161,261.88154 5.127669,-4.14268 2.973771,1.33578 -7.896826,6.01217 -2.278198,5.07182 -2.736597,-1.22924 2.237224,-4.98061 -0.709847,-9.9878 2.992012,1.34398 z"
       id="path11433" />
    <path
       d="m 103.49747,274.64385 0.0997,-11.71595 -0.0763,-0.0241 q -0.10162,0.38739 -0.30487,1.16217 -0.20325,0.77479 -0.4427,1.66398 -0.23343,0.87012 -0.45671,1.57563 l -2.00348,6.33054 -2.574167,-0.81468 4.308707,-13.61445 3.92798,1.24313 -0.0724,11.4309 0.0572,0.0181 6.70804,-9.33086 3.92798,1.24313 -4.3087,13.61446 -2.68857,-0.85088 2.03969,-6.44494 q 0.20518,-0.64831 0.48977,-1.48126 0.30366,-0.82692 0.55808,-1.56453 0.27952,-0.75064 0.41928,-1.12597 l -0.0763,-0.0241 -6.88183,9.54857 z"
       id="path11435" />
    <path
       d="m 124.41753,279.77956 -0.3917,-3.53386 -5.10987,-0.96395 -1.65225,3.14828 -3.2035,-0.60432 7.61092,-13.15717 3.63587,0.68589 2.31403,15.02945 z m -1.0349,-9.61855 q -0.0352,-0.35265 -0.0961,-0.89329 -0.0608,-0.54065 -0.11796,-1.10095 -0.0571,-0.5603 -0.0812,-0.97191 -0.17242,0.37453 -0.46052,0.93077 -0.26475,0.54028 -0.52208,1.04126 -0.23396,0.48504 -0.35336,0.6864 l -1.61776,3.07337 3.65552,0.68959 z"
       id="path11437" />
    <path
       d="m 142.04542,281.55332 -3.82887,-0.29217 -5.38022,-11.24196 -0.0798,-0.006 q -0.0377,1.02009 -0.0755,2.04017 -0.0178,1.02161 -0.0555,2.0417 l -0.51131,6.70052 -2.69217,-0.20544 1.08653,-14.2386 3.80893,0.29065 5.36788,11.14073 0.0598,0.005 q 0.0562,-0.99863 0.0908,-1.97883 0.0347,-0.9802 0.0694,-1.96041 l 0.51436,-6.7404 2.71211,0.20696 z"
       id="path11439" />
    <path
       d="m 164.02905,276.36649 q 0.19093,1.89038 -1.06752,3.16329 -1.24057,1.251 -3.74781,1.50424 -2.24856,0.22711 -4.10597,-0.44967 l -0.28339,-2.80572 q 1.05905,0.33527 2.17177,0.60482 1.13061,0.24763 2.20514,0.1391 1.11434,-0.11255 1.5298,-0.57665 0.43335,-0.48601 0.36703,-1.14267 -0.0543,-0.53726 -0.47053,-0.87715 -0.39636,-0.3419 -1.04538,-0.59798 -0.65103,-0.27597 -1.48517,-0.57365 -0.52159,-0.18854 -1.13081,-0.44864 -0.61123,-0.27999 -1.19673,-0.7033 -0.56761,-0.44521 -0.97624,-1.1075 -0.40862,-0.66229 -0.5071,-1.63733 -0.19294,-1.91028 0.99395,-3.09555 1.18489,-1.20517 3.41355,-1.43028 1.11433,-0.11255 2.1354,0.0457 1.04096,0.15618 2.18363,0.52321 l -0.73788,2.44653 q -1.01523,-0.29949 -1.81339,-0.43999 -0.79816,-0.14051 -1.61401,-0.0581 -0.85565,0.0864 -1.27312,0.53062 -0.41748,0.4442 -0.35316,1.08096 0.0764,0.75616 0.79714,1.12559 0.72078,0.36944 2.11831,0.87154 1.14669,0.40683 1.95911,0.88762 0.83233,0.47878 1.32658,1.19273 0.49425,0.71395 0.6068,1.82828 z"
       id="path11441" />
    <path
       d="m 178.29287,270.39234 q 0.44167,2.17563 0.0467,3.94966 -0.37933,1.75047 -1.66631,2.9505 -1.28698,1.20004 -3.5802,1.66558 -2.27362,0.46157 -3.94627,-0.13763 -1.65305,-0.60318 -2.70852,-2.08278 -1.03586,-1.48357 -1.47753,-3.65919 -0.44168,-2.17562 -0.0624,-3.92608 0.39893,-1.75444 1.68989,-2.93487 1.30657,-1.20402 3.5998,-1.66956 2.27362,-0.46157 3.92667,0.14161 1.64907,0.58358 2.68493,2.06715 1.05149,1.45999 1.49316,3.63561 z m -10.2117,2.07308 q 0.44566,2.19522 1.5471,3.29813 1.09747,1.08332 2.95948,0.70531 1.90122,-0.38597 2.46977,-1.8075 0.56457,-1.44113 0.11892,-3.63635 -0.44963,-2.21482 -1.52749,-3.30211 -1.07787,-1.0873 -2.95949,-0.70531 -1.88161,0.38199 -2.46976,1.8075 -0.58816,1.42551 -0.13853,3.64033 z"
       id="path11443" />
    <path
       d="m 182.55465,276.5262 -4.22802,-13.63973 2.88459,-0.89416 3.48782,11.25182 5.53995,-1.71727 0.7402,2.38791 z"
       id="path11445" />
    <path
       d="m 201.89758,264.0127 q 0.57376,1.36425 0.43058,2.72628 -0.13249,1.33583 -1.07789,2.49281 -0.93471,1.1308 -2.77831,1.90615 -2.6179,1.101 -4.54041,0.34737 -1.93026,-0.77206 -2.85293,-2.96594 l -3.56661,-8.48052 2.78383,-1.17078 3.38828,8.0565 q 0.6823,1.62236 1.62512,2.00693 0.94282,0.38456 2.25177,-0.16593 1.36426,-0.57376 1.67026,-1.54863 0.32444,-0.98262 -0.3191,-2.5128 l -3.38053,-8.03806 2.78383,-1.17078 z"
       id="path11447" />
    <path
       d="m 211.80619,264.43317 -2.65433,1.44046 -5.6092,-10.33608 -3.4102,1.85065 -1.20197,-2.21487 9.47473,-5.14177 1.20198,2.21488 -3.41021,1.85065 z"
       id="path11449" />
    <path
       d="m 221.55324,258.486 -5.47722,3.50001 -0.92615,-1.44936 1.03544,-1.61104 -4.9754,-7.78608 -1.89698,0.26281 -0.92616,-1.44936 5.47722,-3.50001 0.92616,1.44936 -1.03544,1.61104 4.9754,7.78608 1.89698,-0.2628 z"
       id="path11451" />
    <path
       d="m 229.54221,243.61024 q 1.35235,1.76054 1.77673,3.52777 0.42805,1.73919 -0.20107,3.38254 -0.62912,1.64336 -2.48484,3.06881 -1.83985,1.41328 -3.6057,1.60962 -1.75,0.18416 -3.34807,-0.6815 -1.58221,-0.87784 -2.93457,-2.63838 -1.35236,-1.76055 -1.78041,-3.49974 -0.41219,-1.75137 0.22911,-3.37886 0.64499,-1.65554 2.5007,-3.081 1.83985,-1.41327 3.58985,-1.59743 1.73781,-0.20002 3.32002,0.67782 1.58589,0.8498 2.93825,2.61035 z m -8.26347,6.34755 q 1.36454,1.77641 2.83847,2.28348 1.46176,0.4912 2.96853,-0.66622 1.5385,-1.1818 1.42491,-2.70859 -0.12577,-1.54265 -1.49031,-3.31906 -1.37672,-1.79227 -2.82262,-2.29566 -1.44589,-0.50338 -2.96852,0.66622 -1.52264,1.16961 -1.42491,2.70859 0.0977,1.53897 1.47445,3.33124 z"
       id="path11453" />
    <path
       d="m 245.20205,238.48715 -2.74994,2.6802 -11.99237,-3.39282 -0.0573,0.0558 q 0.74058,0.70253 1.48115,1.40507 0.7549,0.68857 1.49547,1.3911 l 4.69035,4.81238 -1.93355,1.88452 -9.96699,-10.22631 2.73561,-2.66624 11.90826,3.33516 0.043,-0.0419 q -0.71229,-0.70217 -1.42495,-1.37606 -0.71265,-0.67389 -1.42531,-1.34777 l -4.71826,-4.84103 1.94786,-1.89848 z"
       id="path11455" />
    <path
       d="m 249.9308,226.75636 q 1.45644,1.22015 1.44409,3.01008 -0.0148,1.76175 -1.63314,3.69346 -1.45134,1.7324 -3.25366,2.54458 l -2.16167,-1.81097 q 0.99231,-0.49931 1.97716,-1.08316 0.98236,-0.61201 1.67592,-1.43989 0.71925,-0.85853 0.6927,-1.48086 -0.029,-0.65051 -0.53495,-1.07435 -0.41394,-0.34678 -0.94926,-0.29952 -0.52248,0.0319 -1.16593,0.30169 -0.65878,0.25691 -1.46382,0.62612 -0.50506,0.22915 -1.12282,0.46825 -0.6331,0.22626 -1.34782,0.33194 -0.71721,0.0775 -1.47214,-0.11139 -0.75493,-0.1889 -1.50615,-0.81824 -1.47177,-1.233 -1.44947,-2.91023 0.007,-1.69007 1.44546,-3.40714 0.71925,-0.85854 1.56074,-1.45812 0.85433,-0.61491 1.92868,-1.14987 l 1.17971,2.26678 q -0.93596,0.49434 -1.60551,0.95097 -0.66954,0.45663 -1.19613,1.0852 -0.55228,0.65923 -0.54107,1.26872 0.0112,0.60949 0.50181,1.02049 0.58258,0.48806 1.35654,0.24936 0.77397,-0.23869 2.12509,-0.85487 1.10501,-0.50926 2.02234,-0.73222 0.93017,-0.23828 1.78247,-0.0722 0.85229,0.16611 1.71083,0.88536 z"
       id="path11457" />
  </g>
</svg>
